<svg width="24" height="24" viewBox="0 0 24 24" fill="none" xmlns="http://www.w3.org/2000/svg">
<path fill-rule="evenodd" clip-rule="evenodd" d="M2.68 4.634C3.446 3.889 4.415 3.56 5.613 3.403C6.781 3.25 8.275 3.25 10.166 3.25H12.894C13.977 3.25 14.842 3.25 15.55 3.316C16.28 3.384 16.9 3.526 17.485 3.841C18.071 4.157 18.525 4.595 18.975 5.165C19.408 5.716 19.867 6.431 20.44 7.323L21.163 8.45C21.641 9.194 22.032 9.802 22.298 10.332C22.576 10.885 22.75 11.412 22.75 12.001C22.75 12.59 22.576 13.117 22.298 13.671C22.032 14.201 21.641 14.808 21.163 15.552L20.44 16.678C19.867 17.57 19.408 18.285 18.974 18.836C18.525 19.406 18.071 19.844 17.484 20.16C16.9 20.475 16.281 20.617 15.55 20.685C14.842 20.751 13.977 20.751 12.894 20.751H10.166C8.275 20.751 6.781 20.751 5.613 20.598C4.415 20.441 3.446 20.112 2.681 19.367C1.913 18.62 1.571 17.669 1.408 16.493C1.25 15.353 1.25 13.895 1.25 12.059V11.943C1.25 10.107 1.25 8.65 1.408 7.509C1.57 6.333 1.913 5.383 2.681 4.635M10.222 4.751C8.264 4.751 6.868 4.753 5.809 4.891C4.769 5.027 4.167 5.283 3.728 5.711C3.292 6.134 3.033 6.712 2.894 7.715C2.753 8.741 2.751 10.094 2.751 12.001C2.751 13.908 2.753 15.261 2.894 16.287C3.033 17.29 3.292 17.867 3.728 18.292C4.167 18.719 4.769 18.975 5.809 19.111C6.869 19.25 8.264 19.251 10.222 19.251H12.859C13.986 19.251 14.781 19.251 15.412 19.191C16.027 19.134 16.429 19.026 16.774 18.839C17.118 18.654 17.424 18.382 17.797 17.907C18.181 17.42 18.601 16.767 19.199 15.836L19.88 14.776C20.385 13.989 20.732 13.448 20.958 12.997C21.177 12.562 21.251 12.272 21.251 12.001C21.251 11.73 21.177 11.44 20.958 11.005C20.732 10.555 20.385 10.013 19.88 9.226L19.2 8.166C18.601 7.236 18.18 6.582 17.797 6.095C17.423 5.62 17.117 5.348 16.774 5.163C16.429 4.976 16.027 4.868 15.412 4.81C14.782 4.752 13.986 4.751 12.859 4.751H10.222Z" fill="#64748B"/>
</svg>
